<?xml version="1.0"?><!DOCTYPE svg  PUBLIC '-//W3C//DTD SVG 1.1//EN'  'http://www.w3.org/Graphics/SVG/1.1/DTD/svg11.dtd'><svg height="100%" style="fill-rule:evenodd;clip-rule:evenodd;stroke-linejoin:round;stroke-miterlimit:2;" version="1.1" viewBox="0 0 134 134" width="100%" xml:space="preserve" xmlns="http://www.w3.org/2000/svg" xmlns:serif="http://www.serif.com/" xmlns:xlink="http://www.w3.org/1999/xlink"><path d="M66.668,91.209c-0.736,-0.091 -1.485,-0.138 -2.245,-0.138c-10.223,0 -18.59,8.5 -18.59,19.048c0,10.548 8.367,19.048 18.59,19.048c3.977,-0 7.667,-1.281 10.697,-3.47c3.63,2.206 7.863,3.47 12.38,3.47c4.517,-0 8.751,-1.264 12.382,-3.47c3.027,2.189 6.718,3.47 10.695,3.47c10.223,-0 18.59,-8.5 18.59,-19.048c-0,-10.548 -8.367,-19.048 -18.59,-19.048c-0.76,0 -1.51,0.047 -2.246,0.139c-4.279,-7.232 -12.021,-12.043 -20.831,-12.043c-8.81,-0 -16.551,4.81 -20.832,12.042Zm0.922,8.716c2.077,0.706 4.346,-0.321 5.187,-2.348c2.45,-5.902 8.11,-10.077 14.723,-10.077c6.613,0 12.273,4.175 14.723,10.077c0.841,2.027 3.11,3.054 5.187,2.348c0.997,-0.338 2.062,-0.52 3.167,-0.52c5.697,-0 10.256,4.836 10.256,10.714c0,5.878 -4.559,10.714 -10.256,10.714c-2.898,0 -5.51,-1.261 -7.368,-3.266c-1.505,-1.624 -4.017,-1.788 -5.72,-0.372c-2.734,2.272 -6.208,3.638 -9.989,3.638c-3.781,0 -7.255,-1.366 -9.989,-3.638c-1.703,-1.416 -4.215,-1.252 -5.72,0.372c-1.858,2.005 -4.47,3.266 -7.368,3.266c-5.697,0 -10.256,-4.836 -10.256,-10.714c-0,-5.878 4.559,-10.714 10.256,-10.714c1.105,-0 2.17,0.182 3.167,0.52Zm-25.923,-24.627l-0,8.035c-0,2.3 1.867,4.167 4.166,4.167c2.3,-0 4.167,-1.867 4.167,-4.167l-0,-8.035c0,-2.3 -1.867,-4.167 -4.167,-4.167c-2.299,-0 -4.166,1.867 -4.166,4.167Zm-19.614,-11.577l-5.682,5.683c-1.627,1.626 -1.627,4.266 -0,5.892c1.626,1.626 4.266,1.626 5.892,0l5.682,-5.682c1.626,-1.626 1.626,-4.266 0,-5.893c-1.626,-1.626 -4.266,-1.626 -5.892,0Zm53.243,5.683l-5.682,-5.683c-1.626,-1.626 -4.266,-1.626 -5.893,0c-1.626,1.627 -1.626,4.267 0,5.893l5.683,5.682c1.626,1.626 4.266,1.626 5.892,0c1.626,-1.626 1.626,-4.266 0,-5.892Zm-29.463,-44.404c-11.498,-0 -20.833,9.335 -20.833,20.833c-0,11.499 9.335,20.834 20.833,20.834c11.499,-0 20.834,-9.335 20.834,-20.834c-0,-11.498 -9.335,-20.833 -20.834,-20.833Zm0,8.333c6.899,0 12.5,5.601 12.5,12.5c0,6.899 -5.601,12.5 -12.5,12.5c-6.899,0 -12.5,-5.601 -12.5,-12.5c0,-6.899 5.601,-12.5 12.5,-12.5Zm-29.464,8.334l-8.036,-0c-2.299,-0 -4.166,1.867 -4.166,4.166c-0,2.3 1.867,4.167 4.166,4.167l8.036,0c2.3,0 4.167,-1.867 4.167,-4.167c-0,-2.299 -1.867,-4.166 -4.167,-4.166Zm66.964,-0l-8.035,-0c-2.3,-0 -4.167,1.867 -4.167,4.166c-0,2.3 1.867,4.167 4.167,4.167l8.035,0c2.3,0 4.167,-1.867 4.167,-4.167c0,-2.299 -1.867,-4.166 -4.167,-4.166Zm-55.388,-19.614l-5.682,-5.682c-1.626,-1.627 -4.266,-1.627 -5.892,-0c-1.627,1.626 -1.627,4.266 -0,5.892l5.682,5.682c1.626,1.626 4.266,1.626 5.892,0c1.626,-1.626 1.626,-4.266 0,-5.892Zm41.459,-5.682l-5.683,5.682c-1.626,1.626 -1.626,4.266 0,5.892c1.627,1.626 4.267,1.626 5.893,0l5.682,-5.682c1.626,-1.626 1.626,-4.266 0,-5.892c-1.626,-1.627 -4.266,-1.627 -5.892,-0Zm-27.737,-8.038l-0,8.036c-0,2.3 1.867,4.167 4.166,4.167c2.3,-0 4.167,-1.867 4.167,-4.167l0,-8.036c0,-2.299 -1.867,-4.166 -4.167,-4.166c-2.299,-0 -4.166,1.867 -4.166,4.166Z"/></svg>